<svg width="25" height="24" viewBox="0 0 25 24" fill="none" xmlns="http://www.w3.org/2000/svg">
<g clip-path="url(#clip0_131_1503)">
<path d="M12.74 24C19.3674 24 24.74 18.6274 24.74 12C24.74 5.37258 19.3674 0 12.74 0C6.11257 0 0.73999 5.37258 0.73999 12C0.73999 18.6274 6.11257 24 12.74 24Z" fill="#F3BA2F"/>
<path d="M9.82699 10.803L12.74 7.89L15.6545 10.8045L17.3495 9.1095L12.74 4.5L8.13199 9.108L9.82699 10.803ZM5.23999 12L6.93499 10.305L8.62999 12L6.93499 13.695L5.23999 12ZM9.82699 13.197L12.74 16.11L15.6545 13.1955L17.3495 14.8898L12.74 19.5L8.13199 14.892L8.12974 14.8898L9.82699 13.197ZM16.85 12L18.545 10.305L20.24 12L18.545 13.695L16.85 12ZM14.459 11.9985H14.4605V12L12.74 13.7205L11.0217 12.003L11.0187 12L11.0217 11.9977L11.3225 11.6962L11.4687 11.55L12.74 10.2795L14.4597 11.9992L14.459 11.9985Z" fill="white"/>
</g>
<defs>
<clipPath id="clip0_131_1503">
<rect width="24" height="24" fill="white" transform="translate(0.73999)"/>
</clipPath>
</defs>
</svg>
