<svg width="22" height="18" viewBox="0 0 22 18" fill="none" xmlns="http://www.w3.org/2000/svg">
<path d="M21.1411 0.40625H0.828613C0.396484 0.40625 0.0473633 0.755371 0.0473633 1.1875V5.09375H21.9224V1.1875C21.9224 0.755371 21.5732 0.40625 21.1411 0.40625ZM0.0473633 16.8125C0.0473633 17.2446 0.396484 17.5938 0.828613 17.5938H21.1411C21.5732 17.5938 21.9224 17.2446 21.9224 16.8125V7.24219H0.0473633V16.8125ZM14.1831 12.3203C14.1831 12.2129 14.271 12.125 14.3784 12.125H18.4067C18.5142 12.125 18.6021 12.2129 18.6021 12.3203V14.0781C18.6021 14.1855 18.5142 14.2734 18.4067 14.2734H14.3784C14.271 14.2734 14.1831 14.1855 14.1831 14.0781V12.3203Z" fill="#2892F3"/>
</svg>
