<svg width="24" height="24" viewBox="0 0 24 24" fill="none" xmlns="http://www.w3.org/2000/svg">
<path fill-rule="evenodd" clip-rule="evenodd" d="M7.98999 3C5.22857 3 2.98999 5.23858 2.98999 8C2.98999 10.7614 5.22857 13 7.98999 13C10.7514 13 12.99 10.7614 12.99 8C12.99 5.23858 10.7514 3 7.98999 3ZM0.98999 8C0.98999 4.13401 4.124 1 7.98999 1C11.856 1 14.99 4.13401 14.99 8C14.99 11.866 11.856 15 7.98999 15C4.124 15 0.98999 11.866 0.98999 8Z" fill="white"/>
<path fill-rule="evenodd" clip-rule="evenodd" d="M17.1431 10.0207C17.336 9.5032 17.9119 9.24009 18.4294 9.43302C19.5323 9.84419 20.5137 10.5268 21.2828 11.4178C22.052 12.3087 22.584 13.3792 22.8298 14.5303C23.0756 15.6813 23.0272 16.8758 22.689 18.0032C22.3508 19.1306 21.7338 20.1545 20.8951 20.9802C20.0564 21.806 19.0229 22.4069 17.8904 22.7275C16.7579 23.048 15.5628 23.0778 14.4157 22.8141C13.2686 22.5503 12.2066 22.0016 11.3277 21.2187C10.4489 20.4357 9.78168 19.4438 9.38777 18.3347C9.20294 17.8143 9.475 17.2425 9.99544 17.0577C10.5159 16.8729 11.0876 17.1449 11.2724 17.6654C11.5538 18.4576 12.0304 19.1661 12.6581 19.7254C13.2859 20.2846 14.0445 20.6765 14.8638 20.8649C15.6832 21.0533 16.5368 21.032 17.3458 20.803C18.1547 20.5741 18.8929 20.1449 19.492 19.555C20.0911 18.9652 20.5318 18.2338 20.7733 17.4286C21.0149 16.6233 21.0495 15.7701 20.8739 14.9479C20.6983 14.1257 20.3183 13.3611 19.7689 12.7247C19.2195 12.0883 18.5185 11.6007 17.7308 11.307C17.2133 11.1141 16.9502 10.5382 17.1431 10.0207Z" fill="white"/>
<path fill-rule="evenodd" clip-rule="evenodd" d="M5.98999 6C5.98999 5.44772 6.43771 5 6.98999 5H7.98999C8.54227 5 8.98999 5.44772 8.98999 6V10C8.98999 10.5523 8.54227 11 7.98999 11C7.43771 11 6.98999 10.5523 6.98999 10V7C6.43771 7 5.98999 6.55228 5.98999 6Z" fill="white"/>
<path fill-rule="evenodd" clip-rule="evenodd" d="M15.998 13.1679C16.3913 12.7802 17.0244 12.7846 17.4122 13.1779L18.1122 13.8879C18.498 14.2792 18.4958 14.9085 18.1072 15.2971L15.2872 18.1171C14.8967 18.5076 14.2635 18.5076 13.873 18.1171C13.4824 17.7266 13.4824 17.0934 13.873 16.7029L15.9909 14.585L15.988 14.5821C15.6002 14.1888 15.6047 13.5556 15.998 13.1679Z" fill="white"/>
</svg>
