<svg width="25" height="25" viewBox="0 0 25 25" fill="none" xmlns="http://www.w3.org/2000/svg">
<path d="M10.884 9.375L4.88396 15.375C4.58559 15.6734 4.18092 15.841 3.75896 15.841C3.337 15.841 2.93233 15.6734 2.63396 15.375C2.33559 15.0766 2.16797 14.672 2.16797 14.25C2.16797 13.828 2.33559 13.4234 2.63396 13.125L8.63396 7.125M12.009 12L16.509 7.5M6.00896 6L10.509 1.5M6.75896 5.25L12.759 11.25M15.759 8.25L9.75896 2.25" stroke="black" stroke-width="2" stroke-linecap="round" stroke-linejoin="round"/>
<path d="M17.5098 14C19.4538 14 21.2493 14.3321 22.5873 14.8986C23.2548 15.1814 23.8428 15.5364 24.2725 15.9671C24.67 16.365 24.958 16.855 25.0038 17.4164L25.0098 17.5714V20.4286C25.0098 21.0557 24.7068 21.5993 24.2725 22.0329C23.8428 22.4636 23.2555 22.8186 22.5873 23.1014C21.2493 23.6679 19.4538 24 17.5098 24C15.5658 24 13.7703 23.6679 12.4323 23.1014C11.7648 22.8186 11.1768 22.4636 10.747 22.0329C10.3495 21.635 10.0615 21.145 10.0158 20.5836L10.0098 20.4286V17.5714C10.0098 16.9443 10.3128 16.4007 10.747 15.9671C11.1768 15.5364 11.764 15.1814 12.4323 14.8986C13.7703 14.3321 15.5658 14 17.5098 14ZM23.5098 19.7714C23.2285 19.9471 22.9173 20.1043 22.5873 20.2443C21.2493 20.8107 19.4538 21.1429 17.5098 21.1429C15.5658 21.1429 13.7703 20.8107 12.4323 20.2443C12.1124 20.1097 11.8039 19.9516 11.5098 19.7714V20.4286C11.5098 20.5907 11.5848 20.7986 11.8338 21.0486C12.0865 21.3014 12.4878 21.5621 13.0413 21.7964C14.1468 22.2643 15.7263 22.5714 17.5098 22.5714C19.2933 22.5714 20.8728 22.2643 21.9783 21.7964C22.5318 21.5621 22.933 21.3014 23.1858 21.0486C23.4355 20.7986 23.5098 20.5907 23.5098 20.4286V19.7714Z" fill="black"/>
</svg>
