<svg width="25" height="25" viewBox="0 0 25 25" fill="none" xmlns="http://www.w3.org/2000/svg">
<path d="M10.8742 9.375L4.87419 15.375C4.57582 15.6734 4.17115 15.841 3.74919 15.841C3.32724 15.841 2.92256 15.6734 2.62419 15.375C2.32582 15.0766 2.1582 14.672 2.1582 14.25C2.1582 13.828 2.32582 13.4234 2.62419 13.125L8.62419 7.125M11.9992 12L16.4992 7.5M5.99919 6L10.4992 1.5M6.74919 5.25L12.7492 11.25M15.7492 8.25L9.74919 2.25" stroke="white" stroke-width="2" stroke-linecap="round" stroke-linejoin="round"/>
<path d="M17.5 14C19.444 14 21.2395 14.3321 22.5775 14.8986C23.245 15.1814 23.833 15.5364 24.2628 15.9671C24.6603 16.365 24.9483 16.855 24.994 17.4164L25 17.5714V20.4286C25 21.0557 24.697 21.5993 24.2628 22.0329C23.833 22.4636 23.2458 22.8186 22.5775 23.1014C21.2395 23.6679 19.444 24 17.5 24C15.556 24 13.7605 23.6679 12.4225 23.1014C11.755 22.8186 11.167 22.4636 10.7373 22.0329C10.3398 21.635 10.0517 21.145 10.006 20.5836L10 20.4286V17.5714C10 16.9443 10.303 16.4007 10.7373 15.9671C11.167 15.5364 11.7543 15.1814 12.4225 14.8986C13.7605 14.3321 15.556 14 17.5 14ZM23.5 19.7714C23.2188 19.9471 22.9075 20.1043 22.5775 20.2443C21.2395 20.8107 19.444 21.1429 17.5 21.1429C15.556 21.1429 13.7605 20.8107 12.4225 20.2443C12.1026 20.1097 11.7942 19.9516 11.5 19.7714V20.4286C11.5 20.5907 11.575 20.7986 11.824 21.0486C12.0768 21.3014 12.478 21.5621 13.0315 21.7964C14.137 22.2643 15.7165 22.5714 17.5 22.5714C19.2835 22.5714 20.863 22.2643 21.9685 21.7964C22.522 21.5621 22.9233 21.3014 23.176 21.0486C23.4258 20.7986 23.5 20.5907 23.5 20.4286V19.7714Z" fill="white"/>
</svg>
