<svg width="356" height="122" viewBox="0 0 356 122" fill="none" xmlns="http://www.w3.org/2000/svg">
<path d="M118.595 62.0582V71.6679C118.595 73.7341 118.817 75.0151 119.27 75.5108C119.881 76.2225 120.804 76.576 122.043 76.576H123.296V77.4679H109.24V76.576H110.476C111.864 76.576 112.861 76.1229 113.455 75.2214C113.777 74.7257 113.941 73.5348 113.941 71.6679V50.4013C113.941 48.3351 113.728 47.0541 113.29 46.5584C112.655 45.8491 111.722 45.4932 110.476 45.4932H109.24V44.6013H121.266C124.203 44.6013 126.514 44.905 128.212 45.5099C129.903 46.1124 131.331 47.1372 132.494 48.5747C133.657 50.0123 134.235 51.7155 134.235 53.682C134.235 56.3673 133.352 58.5474 131.587 60.2245C129.82 61.9016 127.329 62.7461 124.106 62.7461C123.312 62.7461 122.462 62.6868 121.548 62.5706C120.624 62.4638 119.641 62.2907 118.595 62.0582ZM118.595 60.6705C119.445 60.8365 120.203 60.9599 120.863 61.0334C121.515 61.1164 122.083 61.1591 122.545 61.1591C124.219 61.1591 125.655 60.5068 126.867 59.2092C128.08 57.9116 128.691 56.2345 128.691 54.1778C128.691 52.7545 128.402 51.4332 127.824 50.2186C127.248 49.0041 126.422 48.0955 125.366 47.493C124.302 46.8881 123.099 46.5821 121.754 46.5821C120.93 46.5821 119.881 46.741 118.595 47.047V60.6705ZM146.321 46.3852V59.3729H153.546C155.417 59.3729 156.663 59.093 157.291 58.5308C158.131 57.7883 158.593 56.4812 158.693 54.6143H159.583V66.0672H158.693C158.47 64.4636 158.24 63.4317 158.018 62.9762C157.729 62.414 157.25 61.9681 156.59 61.6454C155.929 61.3228 154.915 61.1591 153.546 61.1591H146.321V72C146.321 73.4542 146.385 74.3366 146.51 74.6521C146.64 74.9652 146.863 75.2214 147.185 75.4041C147.507 75.5939 148.125 75.684 149.025 75.684H154.577C156.424 75.684 157.769 75.5512 158.61 75.295C159.443 75.0388 160.253 74.5264 161.018 73.7673C162.018 72.7686 163.041 71.2551 164.088 69.2388H165.078L162.25 77.4679H136.966V76.576H138.129C138.903 76.576 139.637 76.3862 140.331 76.0137C140.85 75.7575 141.205 75.3709 141.387 74.849C141.577 74.3295 141.667 73.2715 141.667 71.6679V50.3017C141.667 48.2189 141.461 46.9379 141.039 46.4587C140.454 45.8159 139.49 45.4932 138.129 45.4932H136.966V44.6013H162.257L162.603 51.8388H161.663C161.324 50.0953 160.954 48.8973 160.54 48.245C160.128 47.5903 159.519 47.0968 158.719 46.7481C158.075 46.5085 156.935 46.3852 155.311 46.3852H146.321ZM165.549 44.6013H174.366L194.471 69.2815V50.3017C194.471 48.2782 194.239 47.0138 193.787 46.5085C193.183 45.8325 192.226 45.4932 190.923 45.4932H189.768V44.6013H201.301V45.4932H200.129C198.717 45.4932 197.727 45.9131 197.135 46.7576C196.78 47.2771 196.598 48.4585 196.598 50.3017V77.9969H195.724L174.127 51.5233V71.7675C174.127 73.791 174.35 75.0554 174.788 75.5607C175.406 76.2391 176.363 76.576 177.658 76.576H178.831V77.4679H167.297V76.576H168.453C169.871 76.576 170.868 76.1561 171.463 75.3116C171.818 74.7921 172 73.6107 172 71.7675V48.9139C171.051 47.799 170.324 47.0636 169.838 46.7078C169.343 46.352 168.625 46.0222 167.676 45.7067C167.207 45.5668 166.496 45.4932 165.549 45.4932V44.6013ZM230.609 44.6013L230.955 52.3251H230.041C229.859 50.9706 229.619 49.9957 229.314 49.4168C228.812 48.4846 228.151 47.7895 227.317 47.3507C226.486 46.9047 225.397 46.6817 224.044 46.6817H219.424V71.7675C219.424 73.791 219.639 75.0554 220.075 75.5607C220.686 76.2391 221.626 76.576 222.896 76.576H224.028V77.4679H210.069V76.576H211.248C212.65 76.576 213.64 76.1561 214.235 75.3116C214.59 74.7921 214.772 73.6107 214.772 71.7675V46.6817H210.836C209.301 46.6817 208.212 46.798 207.57 47.0209C206.727 47.3269 206.019 47.9129 205.417 48.7882C204.823 49.6564 204.468 50.8378 204.352 52.3251H203.437L203.783 44.6013H230.609ZM242.382 59.8687H257.575V50.4013C257.575 48.7313 257.468 47.633 257.262 47.104C257.097 46.7078 256.76 46.3591 256.239 46.0721C255.548 45.683 254.814 45.4932 254.037 45.4932H252.874V44.6013H266.93V45.4932H265.767C264.993 45.4932 264.258 45.6735 263.565 46.046C263.046 46.3022 262.691 46.6912 262.508 47.2107C262.319 47.7326 262.229 48.7977 262.229 50.4013V71.6679C262.229 73.3284 262.335 74.4291 262.541 74.9581C262.707 75.3614 263.036 75.7101 263.541 75.9995C264.249 76.3862 264.993 76.576 265.767 76.576H266.93V77.4679H252.874V76.576H254.037C255.382 76.576 256.355 76.1798 256.973 75.3946C257.378 74.8751 257.575 73.6344 257.575 71.6679V61.6549H242.382V71.6679C242.382 73.3284 242.489 74.4291 242.695 74.9581C242.851 75.3614 243.19 75.7101 243.708 75.9995C244.402 76.3862 245.127 76.576 245.904 76.576H247.083V77.4679H233.027V76.576H234.19C235.552 76.576 236.532 76.1798 237.151 75.3946C237.539 74.8751 237.728 73.6344 237.728 71.6679V50.4013C237.728 48.7313 237.622 47.633 237.416 47.104C237.25 46.7078 236.921 46.3591 236.416 46.0721C235.708 45.683 234.965 45.4932 234.19 45.4932H233.027V44.6013H247.083V45.4932H245.904C245.127 45.4932 244.402 45.6735 243.708 46.046C243.206 46.3022 242.861 46.6912 242.669 47.2107C242.479 47.7326 242.382 48.7977 242.382 50.4013V59.8687ZM283.224 76.576V77.4679H269.166V76.576H270.328C271.69 76.576 272.673 76.1798 273.291 75.3946C273.68 74.8751 273.869 73.6344 273.869 71.6679V50.4013C273.869 48.7408 273.76 47.6401 273.554 47.1111C273.391 46.7078 273.059 46.3591 272.557 46.0721C271.847 45.683 271.105 45.4932 270.328 45.4932H269.166V44.6013H283.224V45.4932H282.042C280.706 45.4932 279.733 45.8894 279.122 46.6746C278.719 47.1941 278.52 48.4348 278.52 50.4013V71.6679C278.52 73.3284 278.627 74.4291 278.833 74.9581C278.992 75.3614 279.33 75.7101 279.849 75.9995C280.543 76.3862 281.268 76.576 282.042 76.576H283.224ZM307.087 66.5132H294.376L292.181 71.6608C291.636 72.9323 291.357 73.8906 291.357 74.5193C291.357 75.0151 291.596 75.461 292.074 75.8406C292.546 76.213 293.576 76.4621 295.151 76.576V77.4679H284.806V76.576C286.175 76.3364 287.058 76.0232 287.463 75.6342C288.287 74.8585 289.195 73.2786 290.194 70.9088L301.735 43.8564H302.549L313.96 71.1982C314.874 73.3949 315.708 74.8158 316.459 75.4776C317.209 76.13 318.249 76.4929 319.594 76.576V77.4679H306.659V76.576C307.961 76.5095 308.845 76.296 309.306 75.9236C309.768 75.5512 309.991 75.0981 309.991 74.5596C309.991 73.8503 309.669 72.7259 309.027 71.1887L307.087 66.5132ZM306.346 64.7269L300.818 51.4664L295.144 64.7269H306.346ZM319.495 44.6013H328.312L348.417 69.2815V50.3017C348.417 48.2782 348.185 47.0138 347.732 46.5085C347.128 45.8325 346.172 45.4932 344.869 45.4932H343.713V44.6013H355.247V45.4932H354.075C352.663 45.4932 351.673 45.9131 351.081 46.7576C350.726 47.2771 350.544 48.4585 350.544 50.3017V77.9969H349.67L328.073 51.5233V71.7675C328.073 73.791 328.296 75.0554 328.734 75.5607C329.352 76.2391 330.309 76.576 331.604 76.576H332.776V77.4679H321.243V76.576H322.398C323.817 76.576 324.814 76.1561 325.409 75.3116C325.764 74.7921 325.946 73.6107 325.946 71.7675V48.9139C324.997 47.799 324.269 47.0636 323.784 46.7078C323.289 46.352 322.571 46.0222 321.622 45.7067C321.153 45.5668 320.442 45.4932 319.495 45.4932V44.6013Z" fill="white"/>
<path fill-rule="evenodd" clip-rule="evenodd" d="M46.3275 0.892578L0.185411 32.796L0.0385742 54.8621L46.7727 84.9769L92.9148 54.8621L92.1711 31.9017L46.3275 0.892578Z" fill="white"/>
<path fill-rule="evenodd" clip-rule="evenodd" d="M0 59.6778V81.286C17.8951 91.9419 33.076 105.8 46.6868 121.511C60.5865 105.719 75.8622 91.9442 93.0396 80.9539L92.9307 59.3457L46.3789 90.8957L0 59.6778Z" fill="white"/>
<path fill-rule="evenodd" clip-rule="evenodd" d="M46.7619 20.1562L16.8784 39.9545L50.3571 62.9741L92.2693 35.0298L92.1698 31.8962L91.2225 31.2581L77.3181 40.9603L46.7619 20.1562ZM46.7004 24.1984L74.1966 42.7442L50.4352 59.1431L23.0171 40.2771L46.7004 24.1984Z" fill="#033473"/>
</svg>
