<?xml version="1.0" encoding="utf-8"?>
<!-- Generator: Adobe Illustrator 23.0.3, SVG Export Plug-In . SVG Version: 6.00 Build 0)  -->
<svg version="1.1" id="Layer_1" xmlns="http://www.w3.org/2000/svg" xmlns:xlink="http://www.w3.org/1999/xlink" x="0px" y="0px"
	 viewBox="0 0 854.7 231" style="enable-background:new 0 0 854.7 231;" xml:space="preserve">
<style type="text/css">
	.st0{fill:#1D345D;}
	.st1{fill:#F3C661;}
</style>
<g>
	<g>
		<path d="M244.7,144.5c0,2.6,0.1,4.7,0.4,6.3c0.3,1.6,0.7,2.8,1.3,3.7c0.6,0.9,1.4,1.6,2.4,2.1c1,0.5,2.6,1,4.8,1.5v3.3h-29.3v-3.3
			c2.8-0.7,4.6-1.5,5.5-2.4c0.9-0.9,1.5-2.1,1.8-3.7c0.3-1.6,0.4-4,0.4-7.3V87c0-3.1-0.1-5.3-0.3-6.7c-0.2-1.4-0.6-2.5-1.1-3.3
			c-0.5-0.8-1.2-1.4-2-1.9c-0.8-0.5-2.3-1-4.3-1.6v-3.3h33.1c10.4,0,18.1,2,23.2,6c5.1,4,7.6,10,7.6,18.2c0,4.6-0.8,8.8-2.4,12.5
			c-1.6,3.7-3.9,6.7-6.8,9.1c-2.9,2.4-6.4,4-10.4,5.1c-4,1-8.2,1.5-12.6,1.5c-4.9,0-8.8-0.1-11.5-0.3V144.5z M244.7,116.8h7.7
			c5,0,9.2-0.7,12.4-2c3.3-1.3,5.8-3.5,7.5-6.5c1.7-3,2.6-7.1,2.6-12.1c0-3.8-0.5-7-1.5-9.6c-1-2.6-2.4-4.6-4.2-6.2
			c-1.8-1.6-3.9-2.7-6.4-3.3c-2.5-0.6-5.2-1-8.1-1c-4.4,0-7.7,0.1-9.9,0.3V116.8z"/>
		<path d="M364.3,70.4v20.1h-6.5c-0.7-2.2-1.4-4.1-2.1-5.7c-0.7-1.6-1.4-3-2.2-4.1c-0.8-1.1-1.6-2-2.5-2.7c-0.9-0.7-2-1.1-3.2-1.4
			c-1.2-0.2-2.7-0.4-4.5-0.4h-21.1v34.9h14.3c2,0,3.5-0.3,4.6-0.8c1.1-0.6,2-1.5,2.8-2.8c0.7-1.3,1.4-3.4,2.1-6.3h6.3v25.6H346
			c-0.6-2.7-1.3-4.7-2.1-6c-0.8-1.4-1.7-2.3-2.7-2.9c-1-0.6-2.6-0.9-4.7-0.9h-14.3v38.5H343c2.2,0,3.9-0.2,5.3-0.6
			c1.4-0.4,2.5-1,3.5-1.9c1-0.9,1.8-2.1,2.6-3.6c0.8-1.5,1.4-3,1.9-4.6c0.5-1.6,1.2-3.9,2.1-6.9h6.6l-1.3,23.4H302v-3.3
			c2.8-0.7,4.6-1.5,5.5-2.4c0.9-0.9,1.5-2.1,1.8-3.7c0.3-1.6,0.4-4,0.4-7.3V87c0-3.1-0.1-5.3-0.3-6.7c-0.2-1.4-0.6-2.5-1.1-3.3
			c-0.5-0.8-1.2-1.4-2-1.9c-0.8-0.5-2.3-1-4.3-1.6v-3.3H364.3z"/>
		<path d="M434,125.3c1.6,2.7,2.9,5,4,7c1.1,2,2.2,4.2,3.4,6.7h0.9c-0.2-2.7-0.4-8.1-0.6-16.2c-0.2-8.1-0.3-15.3-0.3-21.8V87
			c0-3.1-0.1-5.3-0.3-6.7c-0.2-1.4-0.5-2.5-1-3.3c-0.5-0.8-1.1-1.4-1.9-1.8c-0.8-0.5-2.3-1-4.3-1.6v-3.3h24v3.3
			c-2,0.5-3.4,1-4.2,1.5c-0.8,0.4-1.5,1-2,1.7c-0.5,0.7-0.9,1.8-1.2,3.2c-0.3,1.4-0.4,3.8-0.4,7v74.7h-8.3l-37.1-62.2
			c-2.3-3.9-4-6.7-4.9-8.5c-1-1.8-1.9-3.5-2.7-5.3h-1.1c0.3,3.4,0.5,9.6,0.7,18.6c0.1,9,0.2,17.9,0.2,26.8v13.6c0,3,0.1,5.2,0.3,6.5
			c0.2,1.4,0.5,2.5,1,3.3c0.5,0.8,1.2,1.5,2.1,2c0.9,0.5,2.4,1.1,4.4,1.6v3.3h-24.3v-3.3c2.8-0.7,4.6-1.5,5.5-2.4
			c0.9-0.9,1.5-2.1,1.8-3.7c0.3-1.6,0.4-4,0.4-7.3V87c0-3.1-0.1-5.3-0.3-6.7c-0.2-1.4-0.6-2.5-1.1-3.3c-0.5-0.8-1.2-1.4-2-1.9
			c-0.8-0.5-2.3-1-4.3-1.6v-3.3h20.9L434,125.3z"/>
		<path d="M469.7,70.4h72.1v23.2h-6.5c-1-3.8-1.9-6.8-2.9-9.1c-1-2.2-2-3.9-3-5.1c-1.1-1.2-2.2-2-3.4-2.5c-1.2-0.5-3.1-0.7-5.5-0.7
			H512v68.2c0,2.6,0.1,4.7,0.4,6.3c0.3,1.6,0.7,2.8,1.3,3.7c0.6,0.9,1.4,1.6,2.4,2.1c1,0.5,2.6,1,4.8,1.5v3.3h-30.5v-3.3
			c1.3-0.3,2.5-0.6,3.5-1c1-0.4,1.9-0.8,2.5-1.3c0.6-0.5,1.2-1.2,1.6-2c0.4-0.8,0.8-1.9,1-3.3c0.2-1.4,0.4-3.4,0.4-6.1V76.2h-8.4
			c-2.1,0-3.8,0.2-5.2,0.6c-1.4,0.4-2.6,1.2-3.8,2.5c-1.2,1.3-2.2,3.1-3.2,5.4c-1,2.3-1.9,5.3-2.7,8.8h-6.6V70.4z"/>
		<path d="M624,144.7c0,2.6,0.1,4.5,0.2,5.8c0.1,1.3,0.4,2.3,0.7,3.1c0.3,0.8,0.7,1.4,1.1,1.9c0.4,0.5,1.1,0.9,1.9,1.3
			c0.8,0.4,2.1,0.8,3.8,1.3v3.3h-27.9v-3.3c2.4-0.6,4.2-1.3,5.1-2.1c1-0.8,1.7-1.9,2-3.5c0.4-1.6,0.6-4.2,0.6-7.9v-27.9h-37.1v27.9
			c0,3,0.1,5.2,0.3,6.5c0.2,1.4,0.5,2.5,1,3.3c0.5,0.8,1.2,1.5,2.1,2c0.9,0.5,2.4,1.1,4.4,1.6v3.3h-28.1v-3.3
			c2.8-0.7,4.6-1.5,5.5-2.4c0.9-0.9,1.5-2.1,1.8-3.7c0.3-1.6,0.4-4,0.4-7.3V87c0-3.1-0.1-5.3-0.3-6.7c-0.2-1.4-0.6-2.5-1.1-3.3
			c-0.5-0.8-1.2-1.4-2-1.9c-0.8-0.5-2.3-1-4.3-1.6v-3.3h28.1v3.3c-2,0.5-3.4,1-4.2,1.5c-0.9,0.5-1.6,1.1-2.1,1.8
			c-0.5,0.7-0.9,1.8-1.1,3.3c-0.2,1.5-0.4,3.7-0.4,6.8v23.6h37.1V87c0-3.9-0.2-6.5-0.6-7.9c-0.4-1.4-1-2.5-1.9-3.3
			c-0.9-0.8-2.6-1.5-5.3-2.2v-3.3h27.9v3.3c-2.5,0.6-4.2,1.3-5.2,2.1c-1,0.8-1.6,1.9-2,3.5c-0.4,1.6-0.5,4.2-0.5,7.8V144.7z"/>
		<path d="M668.3,144.7c0,3,0.1,5.2,0.3,6.5c0.2,1.4,0.5,2.5,1,3.3c0.5,0.8,1.2,1.5,2.1,2c0.9,0.5,2.4,1.1,4.4,1.6v3.3H648v-3.3
			c2.8-0.7,4.6-1.5,5.5-2.4c0.9-0.9,1.5-2.1,1.8-3.7c0.3-1.6,0.4-4,0.4-7.3V87c0-3.1-0.1-5.3-0.3-6.7c-0.2-1.4-0.6-2.5-1.1-3.3
			c-0.5-0.8-1.2-1.4-2-1.9c-0.8-0.5-2.3-1-4.3-1.6v-3.3h28.1v3.3c-2,0.5-3.4,1-4.2,1.5c-0.9,0.5-1.6,1.1-2.1,1.8
			c-0.5,0.7-0.9,1.8-1.1,3.3c-0.2,1.5-0.4,3.7-0.4,6.8V144.7z"/>
		<path d="M737.2,161.3v-3.3c2.2-0.4,3.9-0.9,5-1.5c1.1-0.5,1.9-1.3,2.4-2.2c0.5-1,0.8-2.2,0.8-3.8c0-1.5-0.2-3.1-0.5-4.9
			c-0.4-1.8-0.9-3.7-1.5-5.9l-2.5-8.6h-31.1l-2.3,6.5c-1.2,3.3-1.9,5.8-2.3,7.5c-0.4,1.7-0.5,3.2-0.5,4.6c0,2.7,0.7,4.6,2,5.9
			c1.4,1.2,3.4,2.1,6.2,2.5v3.3h-28.5v-3.3c2.5-0.4,4.7-1.8,6.5-4.3c1.8-2.5,3.6-6,5.4-10.7l27.8-73.8h10.5l22.7,74.3
			c1.1,3.5,2,6.1,2.8,7.9c0.8,1.8,1.8,3.2,3,4.3c1.2,1,2.7,1.8,4.7,2.3v3.3H737.2z M711.6,125.3h27.9l-12.7-43L711.6,125.3z"/>
		<path d="M830.8,125.3c1.6,2.7,2.9,5,4,7c1.1,2,2.2,4.2,3.4,6.7h0.9c-0.2-2.7-0.4-8.1-0.6-16.2c-0.2-8.1-0.3-15.3-0.3-21.8V87
			c0-3.1-0.1-5.3-0.3-6.7c-0.2-1.4-0.5-2.5-1-3.3c-0.5-0.8-1.1-1.4-1.9-1.8c-0.8-0.5-2.3-1-4.3-1.6v-3.3h24v3.3
			c-2,0.5-3.4,1-4.2,1.5c-0.8,0.4-1.5,1-2,1.7c-0.5,0.7-0.9,1.8-1.2,3.2c-0.3,1.4-0.4,3.8-0.4,7v74.7h-8.3l-37.1-62.2
			c-2.3-3.9-4-6.7-4.9-8.5c-1-1.8-1.9-3.5-2.7-5.3h-1.1c0.3,3.4,0.5,9.6,0.7,18.6s0.2,17.9,0.2,26.8v13.6c0,3,0.1,5.2,0.3,6.5
			c0.2,1.4,0.5,2.5,1,3.3c0.5,0.8,1.2,1.5,2.1,2c0.9,0.5,2.4,1.1,4.4,1.6v3.3H777v-3.3c2.8-0.7,4.6-1.5,5.5-2.4
			c0.9-0.9,1.5-2.1,1.8-3.7c0.3-1.6,0.4-4,0.4-7.3V87c0-3.1-0.1-5.3-0.3-6.7c-0.2-1.4-0.6-2.5-1.1-3.3c-0.5-0.8-1.2-1.4-2-1.9
			c-0.8-0.5-2.3-1-4.3-1.6v-3.3h20.9L830.8,125.3z"/>
	</g>
	<g>
		<polygon class="st0" points="190.4,66.3 190.4,112.9 95.2,174 0,112.9 0,66.3 95.2,0 		"/>
		<polygon class="st0" points="190.4,124.7 95.2,186.6 0,124.7 0,169.1 95.2,231 190.4,169.1 		"/>
		<g>
			<path class="st1" d="M190.3,66.3L187,64l-28.1,19.3L95.2,40.9L35.8,81.3l68.7,47.4l85.8-58.9V66.3z M104.5,120.5L47.6,81.3
				l47.6-32.4L153,87.3L104.5,120.5z"/>
		</g>
	</g>
</g>
</svg>
