<svg width="855" height="231" viewBox="0 0 855 231" fill="none" xmlns="http://www.w3.org/2000/svg">
<g clip-path="url(#clip0_4_2)">
<path d="M244.7 144.5C244.7 147.1 244.8 149.2 245.1 150.8C245.4 152.4 245.8 153.6 246.4 154.5C247 155.4 247.8 156.1 248.8 156.6C249.8 157.1 251.4 157.6 253.6 158.1V161.4H224.3V158.1C227.1 157.4 228.9 156.6 229.8 155.7C230.7 154.8 231.3 153.6 231.6 152C231.9 150.4 232 148 232 144.7V87C232 83.9 231.9 81.7 231.7 80.3C231.5 78.9 231.1 77.8 230.6 77C230.1 76.2 229.4 75.6 228.6 75.1C227.8 74.6 226.3 74.1 224.3 73.5V70.2H257.4C267.8 70.2 275.5 72.2 280.6 76.2C285.7 80.2 288.2 86.2 288.2 94.4C288.2 99 287.4 103.2 285.8 106.9C284.2 110.6 281.9 113.6 279 116C276.1 118.4 272.6 120 268.6 121.1C264.6 122.1 260.4 122.6 256 122.6C251.1 122.6 247.2 122.5 244.5 122.3V144.5H244.7ZM244.7 116.8H252.4C257.4 116.8 261.6 116.1 264.8 114.8C268.1 113.5 270.6 111.3 272.3 108.3C274 105.3 274.9 101.2 274.9 96.2C274.9 92.4 274.4 89.2 273.4 86.6C272.4 84 271 82 269.2 80.4C267.4 78.8 265.3 77.7 262.8 77.1C260.3 76.5 257.6 76.1 254.7 76.1C250.3 76.1 247 76.2 244.8 76.4V116.8H244.7Z" fill="white"/>
<path d="M364.3 70.4V90.5H357.8C357.1 88.3 356.4 86.4 355.7 84.8C355 83.2 354.3 81.8 353.5 80.7C352.7 79.6 351.9 78.7 351 78C350.1 77.3 349 76.9 347.8 76.6C346.6 76.4 345.1 76.2 343.3 76.2H322.2V111.1H336.5C338.5 111.1 340 110.8 341.1 110.3C342.2 109.7 343.1 108.8 343.9 107.5C344.6 106.2 345.3 104.1 346 101.2H352.3V126.8H346C345.4 124.1 344.7 122.1 343.9 120.8C343.1 119.4 342.2 118.5 341.2 117.9C340.2 117.3 338.6 117 336.5 117H322.2V155.5H343C345.2 155.5 346.9 155.3 348.3 154.9C349.7 154.5 350.8 153.9 351.8 153C352.8 152.1 353.6 150.9 354.4 149.4C355.2 147.9 355.8 146.4 356.3 144.8C356.8 143.2 357.5 140.9 358.4 137.9H365L363.7 161.3H302V158C304.8 157.3 306.6 156.5 307.5 155.6C308.4 154.7 309 153.5 309.3 151.9C309.6 150.3 309.7 147.9 309.7 144.6V87C309.7 83.9 309.6 81.7 309.4 80.3C309.2 78.9 308.8 77.8 308.3 77C307.8 76.2 307.1 75.6 306.3 75.1C305.5 74.6 304 74.1 302 73.5V70.2H364.3V70.4Z" fill="white"/>
<path d="M434 125.3C435.6 128 436.9 130.3 438 132.3C439.1 134.3 440.2 136.5 441.4 139H442.3C442.1 136.3 441.9 130.9 441.7 122.8C441.5 114.7 441.4 107.5 441.4 101V87C441.4 83.9 441.3 81.7 441.1 80.3C440.9 78.9 440.6 77.8 440.1 77C439.6 76.2 439 75.6 438.2 75.2C437.4 74.7 435.9 74.2 433.9 73.6V70.3H457.9V73.6C455.9 74.1 454.5 74.6 453.7 75.1C452.9 75.5 452.2 76.1 451.7 76.8C451.2 77.5 450.8 78.6 450.5 80C450.2 81.4 450.1 83.8 450.1 87V161.7H441.8L404.7 99.5C402.4 95.6 400.7 92.8 399.8 91C398.8 89.2 397.9 87.5 397.1 85.7H396C396.3 89.1 396.5 95.3 396.7 104.3C396.8 113.3 396.9 122.2 396.9 131.1V144.7C396.9 147.7 397 149.9 397.2 151.2C397.4 152.6 397.7 153.7 398.2 154.5C398.7 155.3 399.4 156 400.3 156.5C401.2 157 402.7 157.6 404.7 158.1V161.4H380.4V158.1C383.2 157.4 385 156.6 385.9 155.7C386.8 154.8 387.4 153.6 387.7 152C388 150.4 388.1 148 388.1 144.7V87C388.1 83.9 388 81.7 387.8 80.3C387.6 78.9 387.2 77.8 386.7 77C386.2 76.2 385.5 75.6 384.7 75.1C383.9 74.6 382.4 74.1 380.4 73.5V70.2H401.3L434 125.3Z" fill="white"/>
<path d="M469.7 70.4H541.8V93.6H535.3C534.3 89.8 533.4 86.8 532.4 84.5C531.4 82.3 530.4 80.6 529.4 79.4C528.3 78.2 527.2 77.4 526 76.9C524.8 76.4 522.9 76.2 520.5 76.2H512V144.4C512 147 512.1 149.1 512.4 150.7C512.7 152.3 513.1 153.5 513.7 154.4C514.3 155.3 515.1 156 516.1 156.5C517.1 157 518.7 157.5 520.9 158V161.3H490.4V158C491.7 157.7 492.9 157.4 493.9 157C494.9 156.6 495.8 156.2 496.4 155.7C497 155.2 497.6 154.5 498 153.7C498.4 152.9 498.8 151.8 499 150.4C499.2 149 499.4 147 499.4 144.3V76.2H491C488.9 76.2 487.2 76.4 485.8 76.8C484.4 77.2 483.2 78 482 79.3C480.8 80.6 479.8 82.4 478.8 84.7C477.8 87 476.9 90 476.1 93.5H469.5V70.4H469.7Z" fill="white"/>
<path d="M624 144.7C624 147.3 624.1 149.2 624.2 150.5C624.3 151.8 624.6 152.8 624.9 153.6C625.2 154.4 625.6 155 626 155.5C626.4 156 627.1 156.4 627.9 156.8C628.7 157.2 630 157.6 631.7 158.1V161.4H603.8V158.1C606.2 157.5 608 156.8 608.9 156C609.9 155.2 610.6 154.1 610.9 152.5C611.3 150.9 611.5 148.3 611.5 144.6V116.7H574.4V144.6C574.4 147.6 574.5 149.8 574.7 151.1C574.9 152.5 575.2 153.6 575.7 154.4C576.2 155.2 576.9 155.9 577.8 156.4C578.7 156.9 580.2 157.5 582.2 158V161.3H554.1V158C556.9 157.3 558.7 156.5 559.6 155.6C560.5 154.7 561.1 153.5 561.4 151.9C561.7 150.3 561.8 147.9 561.8 144.6V87C561.8 83.9 561.7 81.7 561.5 80.3C561.3 78.9 560.9 77.8 560.4 77C559.9 76.2 559.2 75.6 558.4 75.1C557.6 74.6 556.1 74.1 554.1 73.5V70.2H582.2V73.5C580.2 74 578.8 74.5 578 75C577.1 75.5 576.4 76.1 575.9 76.8C575.4 77.5 575 78.6 574.8 80.1C574.6 81.6 574.4 83.8 574.4 86.9V110.5H611.5V87C611.5 83.1 611.3 80.5 610.9 79.1C610.5 77.7 609.9 76.6 609 75.8C608.1 75 606.4 74.3 603.7 73.6V70.3H631.6V73.6C629.1 74.2 627.4 74.9 626.4 75.7C625.4 76.5 624.8 77.6 624.4 79.2C624 80.8 623.9 83.4 623.9 87V144.7H624Z" fill="white"/>
<path d="M668.3 144.7C668.3 147.7 668.4 149.9 668.6 151.2C668.8 152.6 669.1 153.7 669.6 154.5C670.1 155.3 670.8 156 671.7 156.5C672.6 157 674.1 157.6 676.1 158.1V161.4H648V158.1C650.8 157.4 652.6 156.6 653.5 155.7C654.4 154.8 655 153.6 655.3 152C655.6 150.4 655.7 148 655.7 144.7V87C655.7 83.9 655.6 81.7 655.4 80.3C655.2 78.9 654.8 77.8 654.3 77C653.8 76.2 653.1 75.6 652.3 75.1C651.5 74.6 650 74.1 648 73.5V70.2H676.1V73.5C674.1 74 672.7 74.5 671.9 75C671 75.5 670.3 76.1 669.8 76.8C669.3 77.5 668.9 78.6 668.7 80.1C668.5 81.6 668.3 83.8 668.3 86.9V144.7Z" fill="white"/>
<path d="M737.2 161.3V158C739.4 157.6 741.1 157.1 742.2 156.5C743.3 156 744.1 155.2 744.6 154.3C745.1 153.3 745.4 152.1 745.4 150.5C745.4 149 745.2 147.4 744.9 145.6C744.5 143.8 744 141.9 743.4 139.7L740.9 131.1H709.8L707.5 137.6C706.3 140.9 705.6 143.4 705.2 145.1C704.8 146.8 704.7 148.3 704.7 149.7C704.7 152.4 705.4 154.3 706.7 155.6C708.1 156.8 710.1 157.7 712.9 158.1V161.4H684.4V158.1C686.9 157.7 689.1 156.3 690.9 153.8C692.7 151.3 694.5 147.8 696.3 143.1L724.1 69.3H734.6L757.3 143.6C758.4 147.1 759.3 149.7 760.1 151.5C760.9 153.3 761.9 154.7 763.1 155.8C764.3 156.8 765.8 157.6 767.8 158.1V161.4H737.2V161.3ZM711.6 125.3H739.5L726.8 82.3L711.6 125.3Z" fill="white"/>
<path d="M830.8 125.3C832.4 128 833.7 130.3 834.8 132.3C835.9 134.3 837 136.5 838.2 139H839.1C838.9 136.3 838.7 130.9 838.5 122.8C838.3 114.7 838.2 107.5 838.2 101V87C838.2 83.9 838.1 81.7 837.9 80.3C837.7 78.9 837.4 77.8 836.9 77C836.4 76.2 835.8 75.6 835 75.2C834.2 74.7 832.7 74.2 830.7 73.6V70.3H854.7V73.6C852.7 74.1 851.3 74.6 850.5 75.1C849.7 75.5 849 76.1 848.5 76.8C848 77.5 847.6 78.6 847.3 80C847 81.4 846.9 83.8 846.9 87V161.7H838.6L801.5 99.5C799.2 95.6 797.5 92.8 796.6 91C795.6 89.2 794.7 87.5 793.9 85.7H792.8C793.1 89.1 793.3 95.3 793.5 104.3C793.7 113.3 793.7 122.2 793.7 131.1V144.7C793.7 147.7 793.8 149.9 794 151.2C794.2 152.6 794.5 153.7 795 154.5C795.5 155.3 796.2 156 797.1 156.5C798 157 799.5 157.6 801.5 158.1V161.4H777V158.1C779.8 157.4 781.6 156.6 782.5 155.7C783.4 154.8 784 153.6 784.3 152C784.6 150.4 784.7 148 784.7 144.7V87C784.7 83.9 784.6 81.7 784.4 80.3C784.2 78.9 783.8 77.8 783.3 77C782.8 76.2 782.1 75.6 781.3 75.1C780.5 74.6 779 74.1 777 73.5V70.2H797.9L830.8 125.3Z" fill="white"/>
<path d="M190.4 66.3V112.9L95.2 174L0 112.9V66.3L95.2 0L190.4 66.3Z" fill="#1D345D"/>
<path d="M190.4 124.7L95.2 186.6L0 124.7V169.1L95.2 231L190.4 169.1V124.7Z" fill="#1D345D"/>
<path d="M190.3 66.3L187 64L158.9 83.3L95.2 40.9L35.8 81.3L104.5 128.7L190.3 69.8V66.3ZM104.5 120.5L47.6 81.3L95.2 48.9L153 87.3L104.5 120.5Z" fill="#F3C661"/>
</g>
<defs>
<clipPath id="clip0_4_2">
<rect width="854.7" height="231" fill="white"/>
</clipPath>
</defs>
</svg>
