<svg width="25" height="24" viewBox="0 0 25 24" fill="none" xmlns="http://www.w3.org/2000/svg">
<path d="M12.23 24C18.8574 24 24.23 18.6274 24.23 12C24.23 5.37258 18.8574 0 12.23 0C5.60256 0 0.22998 5.37258 0.22998 12C0.22998 18.6274 5.60256 24 12.23 24Z" fill="#3E73C4"/>
<path d="M15.2469 13.5929C15.2469 11.9999 14.2869 11.4539 12.3669 11.2259C10.9959 11.0437 10.7221 10.6799 10.7221 10.0424C10.7221 9.40494 11.1796 8.99544 12.0931 8.99544C12.9159 8.99544 13.3734 9.26844 13.6014 9.95169C13.6251 10.0178 13.6686 10.075 13.7258 10.1156C13.7831 10.1562 13.8514 10.1783 13.9216 10.1789H14.6529C14.6951 10.1801 14.7372 10.1726 14.7764 10.157C14.8157 10.1414 14.8514 10.118 14.8813 10.0882C14.9113 10.0584 14.9348 10.0228 14.9506 9.98361C14.9664 9.94442 14.9741 9.90243 14.9731 9.86019V9.81519C14.8838 9.32087 14.6337 8.86989 14.2616 8.53233C13.8896 8.19477 13.4165 7.98951 12.9159 7.94844V6.85644C12.9159 6.67419 12.7786 6.53769 12.5506 6.49194H11.8644C11.6821 6.49194 11.5449 6.62844 11.4991 6.85644V7.90344C10.1274 8.08494 9.25964 8.99544 9.25964 10.1339C9.25964 11.6354 10.1731 12.2272 12.0931 12.4552C13.3734 12.6824 13.7844 12.9562 13.7844 13.6844C13.7844 14.4119 13.1446 14.9129 12.2761 14.9129C11.0874 14.9129 10.6764 14.4127 10.5391 13.7294C10.4941 13.5479 10.3561 13.4564 10.2189 13.4564H9.44189C9.39972 13.4554 9.35777 13.463 9.3186 13.4786C9.27942 13.4943 9.24382 13.5177 9.21396 13.5475C9.18409 13.5773 9.16058 13.6128 9.14484 13.652C9.1291 13.6911 9.12146 13.733 9.12239 13.7752V13.8202C9.30464 14.9587 10.0366 15.7777 11.5449 16.0057V17.0984C11.5449 17.2799 11.6821 17.4172 11.9101 17.4622H12.5964C12.7786 17.4622 12.9159 17.3257 12.9616 17.0984V16.0049C14.3334 15.7777 15.2469 14.8214 15.2469 13.5922V13.5929Z" fill="white"/>
<path d="M9.8992 18.3727C6.3337 17.0977 4.5052 13.1377 5.8312 9.633C6.5167 7.7205 8.02495 6.26475 9.8992 5.5815C10.0822 5.49075 10.1729 5.35425 10.1729 5.12625V4.48875C10.1729 4.30725 10.0822 4.17075 9.8992 4.125C9.85345 4.125 9.76195 4.125 9.7162 4.17C8.68752 4.49124 7.73254 5.0128 6.90626 5.70463C6.07998 6.39646 5.39871 7.24491 4.90168 8.20112C4.40465 9.15733 4.10167 10.2024 4.0102 11.2762C3.91873 12.35 4.04057 13.4312 4.3687 14.4578C5.1907 17.0078 7.15645 18.9653 9.7162 19.7843C9.8992 19.875 10.0822 19.7842 10.1272 19.602C10.1729 19.557 10.1729 19.5105 10.1729 19.4198V18.7822C10.1729 18.6457 10.0364 18.4642 9.8992 18.3727ZM14.7442 4.17075C14.5612 4.07925 14.3782 4.17075 14.3332 4.35225C14.2874 4.398 14.2874 4.44375 14.2874 4.5345V5.172C14.2874 5.35425 14.4239 5.53575 14.5612 5.62725C18.1267 6.90225 19.9552 10.8623 18.6292 14.367C17.9437 16.2795 16.4354 17.7353 14.5612 18.4185C14.3782 18.5093 14.2874 18.6458 14.2874 18.8738V19.5112C14.2874 19.6927 14.3782 19.8293 14.5612 19.875C14.6069 19.875 14.6984 19.875 14.7442 19.83C15.7729 19.5088 16.7278 18.9872 17.5541 18.2954C18.3804 17.6035 19.0617 16.7551 19.5587 15.7989C20.0557 14.8427 20.3587 13.7976 20.4502 12.7238C20.5417 11.65 20.4198 10.5688 20.0917 9.54225C19.2697 6.94725 17.2582 4.98975 14.7442 4.17075Z" fill="white"/>
</svg>
