<svg width="24" height="25" viewBox="0 0 24 25" fill="none" xmlns="http://www.w3.org/2000/svg">
<path d="M7 22.03C6.45 22.03 5.97917 21.8342 5.5875 21.4425C5.19583 21.0509 5 20.58 5 20.03C5 19.48 5.19583 19.0092 5.5875 18.6175C5.97917 18.2259 6.45 18.03 7 18.03C7.55 18.03 8.02083 18.2259 8.4125 18.6175C8.80417 19.0092 9 19.48 9 20.03C9 20.58 8.80417 21.0509 8.4125 21.4425C8.02083 21.8342 7.55 22.03 7 22.03ZM17 22.03C16.45 22.03 15.9792 21.8342 15.5875 21.4425C15.1958 21.0509 15 20.58 15 20.03C15 19.48 15.1958 19.0092 15.5875 18.6175C15.9792 18.2259 16.45 18.03 17 18.03C17.55 18.03 18.0208 18.2259 18.4125 18.6175C18.8042 19.0092 19 19.48 19 20.03C19 20.58 18.8042 21.0509 18.4125 21.4425C18.0208 21.8342 17.55 22.03 17 22.03ZM6.15 6.03003L8.55 11.03H15.55L18.3 6.03003H6.15ZM5.2 4.03003H19.95C20.3333 4.03003 20.625 4.20086 20.825 4.54253C21.025 4.8842 21.0333 5.23003 20.85 5.58003L17.3 11.98C17.1167 12.3134 16.8708 12.5717 16.5625 12.755C16.2542 12.9384 15.9167 13.03 15.55 13.03H8.1L7 15.03H19V17.03H7C6.25 17.03 5.68333 16.7009 5.3 16.0425C4.91667 15.3842 4.9 14.73 5.25 14.08L6.6 11.63L3 4.03003H1V2.03003H4.25L5.2 4.03003Z" fill="white"/>
</svg>
